<svg width="180" height="180" viewBox="0 0 180 180" fill="none"
    xmlns="http://www.w3.org/2000/svg">
    <g clip-path="url(#clip0_301_22)">
        <path fill-rule="evenodd" clip-rule="evenodd" d="M90 180C139.706 180 180 139.706 180 90C180 40.2943 139.706 0 90 0C40.2943 0 0 40.2943 0 90C0 139.706 40.2943 180 90 180ZM104.686 99.2802C112.818 99.7256 120.904 100.773 128.876 102.414C134.095 103.607 139.245 105.086 144.402 106.567L144.412 106.57C145.057 106.755 145.702 106.941 146.348 107.125C148.133 107.639 149.893 108.272 151.654 108.906L151.655 108.906L151.655 108.906L151.656 108.906C152.673 109.272 153.691 109.638 154.715 109.982C155.495 110.238 155.668 110.579 155.408 111.368C151.449 123.492 144.012 134.234 133.992 142.3C127.388 147.687 119.825 151.821 111.687 154.494C110.885 154.771 110.582 154.494 110.322 153.854C107.887 147.939 105.93 141.845 104.469 135.628C103.103 129.061 101.759 122.474 100.697 115.844C100.2 112.695 99.9589 109.492 99.7185 106.296C99.6236 105.035 99.5288 103.775 99.4184 102.521C99.4184 101.732 99.4184 100.922 99.2668 100.133C99.115 99.3442 99.4834 99.3231 100.091 99.3442L104.686 99.2802ZM100.134 80.904H105.726C114.716 80.4857 123.561 79.0239 132.323 77.0031C139.957 75.1894 147.471 72.9183 154.823 70.2025C155.43 69.9469 155.69 69.6269 155.43 68.966C155.168 68.2858 154.913 67.5986 154.657 66.9097L154.656 66.9064L154.656 66.9062C153.919 64.9191 153.177 62.9188 152.243 61.0358C148.264 52.7632 142.611 45.3758 135.631 39.324C128.65 33.2727 120.488 28.6844 111.644 25.8398C110.929 25.5839 110.495 25.7332 110.235 26.458C109.735 27.9336 109.175 29.4151 108.612 30.9056L108.612 30.9059C108.101 32.2575 107.588 33.6165 107.113 34.9852C105.291 40.6213 103.843 46.3679 102.778 52.1887C100.851 61.3687 99.6761 70.6862 99.2665 80.0515C99.2451 80.7124 99.4616 80.904 100.134 80.904ZM80.5816 102.968C80.0627 111.362 78.9546 119.71 77.2654 127.953C75.6436 135.857 73.4709 143.642 70.7625 151.253C70.5605 151.863 70.3202 152.454 70.0799 153.045C69.9589 153.342 69.838 153.64 69.7219 153.94C69.3988 154.773 69.2452 154.72 68.7181 154.536C68.6957 154.529 68.6726 154.521 68.6488 154.512C68.6312 154.506 68.6132 154.5 68.5948 154.494C52.3631 149.25 38.6905 138.265 30.2277 123.668C27.9332 119.749 26.0798 115.596 24.7002 111.282C24.4618 110.558 24.7002 110.259 25.3288 110.003C33.4277 106.983 41.7277 104.511 50.1697 102.606C58.0229 100.987 65.9974 100.003 74.0138 99.6641L79.8448 99.3867C80.5598 99.3867 80.7986 99.5787 80.7335 100.282C80.6756 100.909 80.6347 101.806 80.5959 102.658L80.5958 102.659L80.5816 102.968ZM80.6582 79.0732C80.5667 77.9009 80.4755 76.7314 80.4755 75.5747H80.5405C80.4351 74.5373 80.3367 73.4982 80.2383 72.4589C79.9929 69.8671 79.7474 67.2739 79.3916 64.7026C78.2638 56.1125 76.5109 47.6132 74.146 39.2702C73.2818 36.2743 72.2595 33.3563 71.246 30.4635C70.7594 29.0747 70.2748 27.6917 69.8108 26.3088C69.5939 25.7545 69.2905 25.52 68.6187 25.7545C59.1958 28.8316 50.5547 33.8623 43.2788 40.5067C34.6813 48.2442 28.2983 58.0648 24.7674 68.9875C24.5723 69.563 24.5723 69.904 25.2442 70.1385C33.4123 73.2168 41.7934 75.7174 50.3237 77.6211C60.0697 79.6103 69.9817 80.7093 79.9337 80.904C80.5623 80.9255 80.7356 80.7124 80.7356 80.094C80.7113 79.7537 80.6847 79.4133 80.6582 79.0732Z" fill="black"/>
    </g>
    <defs>
        <clipPath id="clip0_301_22">
            <rect width="180" height="180" fill="white"/>
        </clipPath>
    </defs>
</svg>
