<svg width="512" height="512" viewBox="0 0 512 512" fill="none"
    xmlns="http://www.w3.org/2000/svg">
    <path d="M256 512c141.385 0 256-114.615 256-256S397.385 0 256 0 0 114.615 0 256s114.615 256 256 256Z" fill="#1F2553"/>
    <path fill-rule="evenodd" clip-rule="evenodd" d="M297.773 282.397a468.451 468.451 0 0 1 68.809 8.914c16.709 3.82 33.172 8.671 49.696 13.401 8.015 2.304 15.846 5.457 23.799 8.125 2.22.728 2.713 1.698 1.973 3.942-11.261 34.488-32.415 65.042-60.917 87.985-18.785 15.322-40.297 27.082-63.445 34.685-2.281.789-3.144 0-3.884-1.819a341.544 341.544 0 0 1-16.648-51.845c-3.884-18.677-7.707-37.414-10.728-56.272-1.973-12.492-2.528-25.286-3.638-37.899 0-2.243 0-4.548-.431-6.791-.432-2.244.616-2.304 2.343-2.244l13.071-.182ZM300.732 230.127h-15.907c-1.912 0-2.528-.545-2.467-2.425a489.779 489.779 0 0 1 9.989-79.254 382.963 382.963 0 0 1 12.331-48.935c2.837-8.186 6.166-16.25 8.879-24.255.74-2.061 1.973-2.486 4.008-1.758 25.157 8.091 48.373 21.142 68.229 38.355 19.856 17.214 35.935 38.227 47.254 61.758 3.576 7.216 6.166 15.038 9.064 22.557.74 1.88 0 2.79-1.727 3.517a554.723 554.723 0 0 1-64 19.344c-24.923 5.748-50.082 9.906-75.653 11.096ZM229.21 292.888a511.071 511.071 0 0 1-9.433 71.067 493.547 493.547 0 0 1-18.497 66.277c-.864 2.608-1.974 5.094-2.96 7.641-.987 2.547-1.418 2.183-3.206 1.576-46.17-14.916-85.061-46.163-109.133-87.682a175.565 175.565 0 0 1-15.723-35.231c-.678-2.061 0-2.91 1.788-3.638a546.406 546.406 0 0 1 70.659-21.041 425.027 425.027 0 0 1 67.823-8.368l16.586-.789c2.034 0 2.713.546 2.528 2.547-.185 2.001-.309 4.973-.432 7.641ZM228.908 214.968c0 4.245.432 8.55.74 12.855 0 1.759-.493 2.365-2.281 2.304a466.877 466.877 0 0 1-84.224-9.338 529.044 529.044 0 0 1-71.337-21.284c-1.912-.667-1.912-1.637-1.357-3.274 10.044-31.069 28.2-59.003 52.655-81.012 20.696-18.9 45.275-33.21 72.078-41.962 1.911-.667 2.774 0 3.391 1.577 4.069 12.127 8.693 24.255 12.331 36.868a507.469 507.469 0 0 1 14.921 72.341c1.418 10.247 2.22 20.616 3.268 30.925h-.185Z" fill="#FDFEFF"/>
</svg>